# xmcd
#
# Track frame offsets: 
#        150
#        18855
#        36761
#        60516
#        81103
#        98579
#        134070
#        156674
#        174897
#        196663
#        213852
#
# Disc length: 3138 seconds
#
# Revision: 0
# Processed by: cddbd v1.5.2PL0 Copyright (c) Steve Scherf et al.
# Submitted via: ExactAudioCopy v0.99pb5
#
DISCID=860c400b
DTITLE=Lisa Miller - Car Tape 2
DYEAR=2010
DGENRE=Country
TTITLE0=Hidden Charms
TTITLE1=It'll Never Happen
TTITLE2=Superfly
TTITLE3=(He Wants To) Play Hearts
TTITLE4=I'll Run Your Hurt Away
TTITLE5=Ambulance Blues
TTITLE6=Needle Of Death
TTITLE7=You Can Have Him
TTITLE8=La Maison Oú J'Ai Grandi
TTITLE9=Traction In The Dark
TTITLE10=Moonraker
EXTD=
EXTT0=
EXTT1=
EXTT2=
EXTT3=
EXTT4=
EXTT5=
EXTT6=
EXTT7=
EXTT8=
EXTT9=
EXTT10=
PLAYORDER=
